<?xml version="1.0" encoding="UTF-8"?>
<svg id="Layer_1" data-name="Layer 1" xmlns="http://www.w3.org/2000/svg" viewBox="0 0 368.61 444.48">
  <defs>
    <style>
      .cls-1 {
        fill: #604695;
      }

      .cls-1, .cls-2 {
        stroke-width: 0px;
      }

      .cls-2 {
        fill: #ff0;
      }
    </style>
  </defs>
  <path class="cls-2" d="M166.79,76.76c-1.5-.89-2.71-2.07-3.95-3.21-1.26-1.15-2.5-2.36-3.85-3.4-3.13-2.41-6.32-4.61-9.57-6.59,2.19-.42,4.39-.8,6.61-1.15,4.09,4.37,7.73,9.07,10.76,14.35Z"/>
  <path class="cls-2" d="M168.72,132.25c-1.88,3.48-3.61,7.16-4.66,10.96-2.03,7.34-1.34,14.87-.55,22.35.09.81-.22,2.2-.75,2.46-4.12,1.97-5.07,5.61-5.65,9.64-.23,1.64-.8,3.41-1.73,4.75-6.87,9.9-15.5,18.03-25.48,24.72-1.72,1.16-2.35,2.36-2.35,4.44.07,36.74.05,73.49.05,110.23,0,32.73-.01,65.46,0,98.19C53.56,396.07,0,326.57,0,244.57,0,172.96,40.84,110.89,100.5,80.37c4,.45,7.93.9,11.85,1.46,4.25.6,8.33,1.15,11.78-2.28.79-.79,1.87-1.29,2.82-1.92.22.37.44.73.67,1.09-.36,1.34-.71,2.68-.96,3.67,12.42,2.87,24.66,5.69,36.9,8.52-.06.43-.13.86-.2,1.29-1.26-.01-2.51.03-3.76-.02-16.27-.68-32.45-.13-48.33,3.89-28.58,7.24-49.43,23.14-58.02,52.51-3.02,10.34-4.16,20.88-2.93,31.78.64-.28,1.07-.35,1.34-.59,9.16-8.37,18.33-16.71,27.38-25.2.86-.81,1.12-2.52,1.22-3.84.29-3.89.93-7.57,4.17-11.11.62,3.89,1.12,6.96,1.7,10.59,9.04-6.03,17.75-11.7,26.25-17.67,1.56-1.1,2.56-3.35,3.27-5.26.98-2.67,1.44-5.52,2.13-8.29.45.09.9.18,1.35.27.03,2.81.06,5.61.09,8.92,13.85-9.05,28.16-15.85,41.45-20.99-9.77,8.07-21.22,16.42-31.36,26.14-16.4,15.73-27.58,34.62-30.15,57.77-1.16,10.49-.24,20.76,3.56,31.64,9.04-11.87,17.62-23.06,26.04-34.37.65-.87.35-2.66.11-3.95-.43-2.3-1.14-4.56-1.74-6.84.33-.1.67-.21,1-.31,1.58,1.68,3.16,3.37,5.05,5.38,4.87-7.86,9.43-15.41,14.22-22.81,1.83-2.81,3.21-5.27.94-8.5-.73-1.03-.69-2.59-1.23-4.93,2.3,1.74,3.69,2.79,5.18,3.92,3.8-5.92,7.18-11.73,11.1-17.15,1.58-2.18,3.25-4.3,4.95-6.39.15.33.32.65.49.98.88,1.65.83,2.76-.11,4.48Z"/>
  <path class="cls-2" d="M187.01,60.29c-.65,1.33-1.27,2.68-1.87,4.04-.55,1.25-1.12,2.49-2.02,4.48-1.39-3.39-2.42-5.97-3.47-8.49,1.55-.04,3.1-.06,4.66-.06.9,0,1.8.01,2.7.03Z"/>
  <path class="cls-2" d="M205.22,157.56c.1,1.68-.67,2.28-2.39,2.26-6.23-.09-12.46-.03-18.69-.03-6.07-.01-12.13-.04-18.19.02-1.52.02-2.43-.35-2.33-2.03.23-4.14.49-8.28.7-12.43.07-1.37.7-1.82,2.05-1.82,11.96,0,23.92-.02,35.89-.1,1.45,0,2.15.5,2.23,1.95.22,4.06.49,8.12.73,12.18Z"/>
  <path class="cls-2" d="M210.77,179.16c-.16.5-1.41.91-2.17.92-8.06.07-16.12.04-24.18.04s-15.96-.07-23.93.05c-2.08.03-2.76-.71-2.36-2.59.38-1.78.61-3.66,1.37-5.27,1.3-2.74,3.58-4.23,6.77-4.22,12.13.05,24.27.01,36.4.05,4.98.02,9.63,6.29,8.1,11.02Z"/>
  <path class="cls-2" d="M240.9,69.11c-14.05.83-28.08,5.18-42.04,11.34,4.19-7.04,9.82-12.62,16.01-17.66,8.91,1.48,17.6,3.6,26.03,6.32Z"/>
  <path class="cls-2" d="M238.81,212.49c-.04,65.92-.03,131.83-.03,197.74v2.75c-36.29,2.79-72.24,2.76-108.52.03v-3.02c0-65.75.01-131.5-.04-197.24-.01-1.93.59-2.97,2.25-3.93,15.38-8.96,31.8-15.04,49.55-16.47,6.07-.48,12.41.91,18.46,2.19,12.96,2.74,25.03,7.9,36.48,14.55,1.43.83,1.85,1.8,1.85,3.4Z"/>
  <path class="cls-2" d="M368.61,244.57c0,81.94-53.47,151.4-127.42,175.37,0-69.53,0-139.06.04-208.58,0-1.88-.53-3.01-2.11-4.07-10.05-6.72-18.76-14.89-25.69-24.85-.94-1.34-1.49-3.11-1.72-4.75-.55-4.04-1.49-7.69-5.62-9.64-.53-.25-.88-1.45-.85-2.19.17-4.9.7-9.81.66-14.71-.07-6.87-1.89-13.35-5.83-19.07-1-1.46-1.01-2.53-.2-4.04.24-.45.46-.9.67-1.35,7.66,7.42,13.83,16.13,19.34,25.74,2.33-2.39,4.36-4.48,6.39-6.57.38.18.75.35,1.13.53-.68,3.15-1.06,6.42-2.15,9.42-.94,2.6-.68,4.28,1.3,6.27,6.02,6.09,11.81,12.41,17.71,18.62.86.9,1.84,1.69,2.92,2.67,2.1-3.62,3.95-6.79,5.79-9.96.39.12.78.24,1.17.36-.12,3.92-.49,7.84-.27,11.74.1,1.83.82,4.15,2.1,5.32,9.56,8.69,19.32,17.15,29.02,25.67.89.78,1.87,1.47,2.8,2.21.38-.2.76-.39,1.14-.59-.88-8.5-1.4-17.05-2.69-25.48-6.83-44.8-37.05-77.82-80.98-88.8-1-.26-1.96-.7-2.94-1.05.1-.47.19-.94.29-1.41,5.47.28,10.98.27,16.41.93,5.46.66,10.85,1.99,16.96,3.16-1.96-2.98-3.45-5.24-4.94-7.5.31-.39.62-.77.93-1.16,2.83,1.88,6.56,3.16,8.25,5.77,2.19,3.36,5.06,4.23,8.31,5.12,2.79.77,5.59,1.54,8.39,2.27,5.92,1.56,11.84,3.09,17.98,4.68.16-2.87.28-5.17.4-7.46.38-.15.76-.31,1.14-.46,1.59,2.74,3.92,5.33,4.55,8.28.57,2.63,1.76,3.41,3.83,4.1,10.14,3.35,20.26,6.78,30.39,10.14,3.27,1.08,6.57,2.03,10.68,3.29-1.87-4.38-3.83-8.64-5.93-12.75,30.2,32.83,48.65,76.65,48.65,124.78Z"/>
  <path class="cls-1" d="M80.41,49.08c-14.43,1.42-26.62,8.25-35.81,19.74-2.48,3.1-4.32,6.7-6.86,10.72,2.15.03,3.18.1,4.2.05,11.06-.51,22.12-1.22,33.19-1.5,5.94-.15,11.52-.7,15.89-5.31.37-.4,1.05-.52,1.93-.93-.31,2.7-.58,4.99-.88,7.57,2.86.33,5.66.64,8.43.95,15.2-7.77,31.63-13.5,48.91-16.81-20.89-12.77-44.17-16.9-69-14.48ZM179.49,59.93c-6.36-15.12-14.53-29.12-26.92-40.07C129.29-.72,102.52-4.33,73.43,4.57c-.42.13-.77.53-1.25.87,8.52,4.74,16.87,9.2,25.01,14.01,3.46,2.03,6.58,4.06,10.92,2.94,1.77-.46,3.83.19,6.73.41-2.5,1.48-4.11,2.43-6.08,3.59,7.34,5,14.23,9.85,21.31,14.41,2,1.28,4.51,1.84,6.85,2.51,2.38.68,4.84,1.09,7.26,1.62-.05.34-.1.68-.15,1.02-1.24.54-2.47,1.08-4.11,1.8,5.75,4.69,11.24,9.43,16.11,14.66,7.73-1.18,15.61-1.89,23.62-2.09-.05-.13-.11-.26-.16-.39ZM285.13,12.43c-28.63-11.37-56.21-5.22-77.35,17.27-8.57,9.11-15.4,19.38-20.77,30.59,9.48.13,18.78.98,27.86,2.5,2-1.64,4.06-3.22,6.15-4.77-1.6-1.51-2.87-2.71-3.68-3.48,4.65-1.48,9.46-2.48,13.79-4.5,8.01-3.72,15.74-8.04,23.59-12.11,1.58-.82,3.16-1.66,4.89-2.58-1.83-1.68-3.27-3.01-5.34-4.92,4.38.25,7.85,1.05,11.07.47,3.29-.59,6.34-2.52,9.5-3.87,2.06-.88,4.12-1.77,6.18-2.66,4.91-2.13,9.82-4.26,15.6-6.77-4.41-1.99-7.89-3.73-11.49-5.17ZM282.28,78.31c-13.82-7.48-27.62-10.02-41.38-9.2,30.63,9.87,57.76,27.55,79.06,50.68-8.88-17.35-20.24-32.05-37.68-41.48Z"/>
  <path class="cls-1" d="M240.22,102.58c2.19,3.36,5.06,4.23,8.31,5.12,2.79.77,5.59,1.54,8.39,2.27,5.92,1.56,11.84,3.09,17.98,4.68.16-2.87.28-5.17.4-7.46.38-.15.76-.31,1.14-.46,1.59,2.74,3.92,5.33,4.55,8.28.57,2.63,1.76,3.41,3.83,4.1,10.14,3.35,20.26,6.78,30.39,10.14,3.27,1.08,6.57,2.03,10.68,3.29-1.87-4.38-3.83-8.64-5.93-12.75-21.3-23.13-48.43-40.81-79.06-50.68-14.05.83-28.08,5.18-42.04,11.34,4.19-7.04,9.82-12.62,16.01-17.66-9.08-1.52-18.38-2.37-27.86-2.5-.65,1.33-1.27,2.68-1.87,4.04-.55,1.25-1.12,2.49-2.02,4.48-1.39-3.39-2.42-5.97-3.47-8.49-8.01.2-15.89.91-23.62,2.09,4.09,4.37,7.73,9.07,10.76,14.35-1.5-.89-2.71-2.07-3.95-3.21-1.26-1.15-2.5-2.36-3.85-3.4-3.13-2.41-6.32-4.61-9.57-6.59h-.01c-17.28,3.31-33.71,9.04-48.91,16.81,4,.45,7.93.9,11.85,1.46,4.25.6,8.33,1.15,11.78-2.28.79-.79,1.87-1.29,2.82-1.92.22.37.44.73.67,1.09-.36,1.34-.71,2.68-.96,3.67,12.42,2.87,24.66,5.69,36.9,8.52-.06.43-.13.86-.2,1.29-1.26-.01-2.51.03-3.76-.02-16.27-.68-32.45-.13-48.33,3.89-28.58,7.24-49.43,23.14-58.02,52.51-3.02,10.34-4.16,20.88-2.93,31.78.64-.28,1.07-.35,1.34-.59,9.16-8.37,18.33-16.71,27.38-25.2.86-.81,1.12-2.52,1.22-3.84.29-3.89.93-7.57,4.17-11.11.62,3.89,1.12,6.96,1.7,10.59,9.04-6.03,17.75-11.7,26.25-17.67,1.56-1.1,2.56-3.35,3.27-5.26.98-2.67,1.44-5.52,2.13-8.29.45.09.9.18,1.35.27.03,2.81.06,5.61.09,8.92,13.85-9.05,28.16-15.85,41.45-20.99-9.77,8.07-21.22,16.42-31.36,26.14-16.4,15.73-27.58,34.62-30.15,57.77-1.16,10.49-.24,20.76,3.56,31.64,9.04-11.87,17.62-23.06,26.04-34.37.65-.87.35-2.66.11-3.95-.43-2.3-1.14-4.56-1.74-6.84.33-.1.67-.21,1-.31,1.58,1.68,3.16,3.37,5.05,5.38,4.87-7.86,9.43-15.41,14.22-22.81,1.83-2.81,3.21-5.27.94-8.5-.73-1.03-.69-2.59-1.23-4.93,2.3,1.74,3.69,2.79,5.18,3.92,3.8-5.92,7.18-11.73,11.1-17.15,1.58-2.18,3.25-4.3,4.95-6.39.15.33.32.65.49.98.88,1.65.83,2.76-.11,4.48-1.88,3.48-3.61,7.16-4.66,10.96-2.03,7.34-1.34,14.87-.55,22.35.09.81-.22,2.2-.75,2.46-4.12,1.97-5.07,5.61-5.65,9.64-.23,1.64-.8,3.41-1.73,4.75-6.87,9.9-15.5,18.03-25.48,24.72-1.72,1.16-2.35,2.36-2.35,4.44.07,36.74.05,73.49.05,110.23,0,32.73-.01,65.46,0,98.19v11.79c0,8.42,3.73,12.36,12.13,12.42,26.03.17,52.06.23,78.1.28,4.4.01,8.82-.08,13.21-.4,2.84-.2,5.09-1.05,6.74-2.51h.01c1.9-1.65,3.01-4.1,3.31-7.25.1-1.08.09-2.17.09-3.25v-11.13c0-69.53,0-139.06.04-208.58,0-1.88-.53-3.01-2.11-4.07-10.05-6.72-18.76-14.89-25.69-24.85-.94-1.34-1.49-3.11-1.72-4.75-.55-4.04-1.49-7.69-5.62-9.64-.53-.25-.88-1.45-.85-2.19.17-4.9.7-9.81.66-14.71-.07-6.87-1.89-13.35-5.83-19.07-1-1.46-1.01-2.53-.2-4.04.24-.45.46-.9.67-1.35,7.66,7.42,13.83,16.13,19.34,25.74,2.33-2.39,4.36-4.48,6.39-6.57.38.18.75.35,1.13.53-.68,3.15-1.06,6.42-2.15,9.42-.94,2.6-.68,4.28,1.3,6.27,6.02,6.09,11.81,12.41,17.71,18.62.86.9,1.84,1.69,2.92,2.67,2.1-3.62,3.95-6.79,5.79-9.96.39.12.78.24,1.17.36-.12,3.92-.49,7.84-.27,11.74.1,1.83.82,4.15,2.1,5.32,9.56,8.69,19.32,17.15,29.02,25.67.89.78,1.87,1.47,2.8,2.21.38-.2.76-.39,1.14-.59-.88-8.5-1.4-17.05-2.69-25.48-6.83-44.8-37.05-77.82-80.98-88.8-1-.26-1.96-.7-2.94-1.05.1-.47.19-.94.29-1.41,5.47.28,10.98.27,16.41.93,5.46.66,10.85,1.99,16.96,3.16-1.96-2.98-3.45-5.24-4.94-7.5.31-.39.62-.77.93-1.16,2.83,1.88,6.56,3.16,8.25,5.77ZM236.96,209.09c1.43.83,1.85,1.8,1.85,3.4-.04,65.92-.03,131.83-.03,197.74v2.75c-36.29,2.79-72.24,2.76-108.52.03v-3.02c0-65.75.01-131.5-.04-197.24-.01-1.93.59-2.97,2.25-3.93,15.38-8.96,31.8-15.04,49.55-16.47,6.07-.48,12.41.91,18.46,2.19,12.96,2.74,25.03,7.9,36.48,14.55ZM210.77,179.16c-.16.5-1.41.91-2.17.92-8.06.07-16.12.04-24.18.04s-15.96-.07-23.93.05c-2.08.03-2.76-.71-2.36-2.59.38-1.78.61-3.66,1.37-5.27,1.3-2.74,3.58-4.23,6.77-4.22,12.13.05,24.27.01,36.4.05,4.98.02,9.63,6.29,8.1,11.02ZM202.26,143.43c1.45,0,2.15.5,2.23,1.95.22,4.06.49,8.12.73,12.18.1,1.68-.67,2.28-2.39,2.26-6.23-.09-12.46-.03-18.69-.03-6.07-.01-12.13-.04-18.19.02-1.52.02-2.43-.35-2.33-2.03.23-4.14.49-8.28.7-12.43.07-1.37.7-1.82,2.05-1.82,11.96,0,23.92-.02,35.89-.1Z"/>
  <g id="_Group_" data-name="&amp;lt;Group&amp;gt;">
    <path class="cls-1" d="M232.1,250.64c0,1.1,0,1.91,0,2.73,0,46.66-.01,93.31.05,139.97,0,2.17-.52,2.82-2.76,2.82-30.03-.08-60.05-.07-90.08,0-2.15,0-2.84-.5-2.84-2.76.06-46.66.05-93.31.05-139.97,0-.81.08-1.63.13-2.75,10.15.13,18.07-5.28,26.29-9.99,3.16-1.81,6.48-3.41,9.86-4.79,10.64-4.34,20.7-2.25,30.38,3.12,1.16.64,2.33,1.29,3.45,2.01,7.74,4.96,15.48,9.9,25.47,9.63ZM184.28,342.22c15.3.06,27.9-12.39,28.01-27.67.11-15.43-12.38-28.1-27.76-28.18-15.37-.08-27.99,12.51-28.01,27.93-.02,15.28,12.49,27.85,27.76,27.91Z"/>
  </g>
</svg>